<mxfile host="app.diagrams.net" agent="Mozilla/5.0 (Windows NT 10.0; Win64; x64; rv:134.0) Gecko/20100101 Firefox/134.0" version="26.0.6">
  <diagram name="Page-1" id="rtjZ41WWvcPLetUQ2Lei">
    <mxGraphModel dx="-960" dy="2444" grid="1" gridSize="10" guides="1" tooltips="1" connect="1" arrows="1" fold="1" page="1" pageScale="1" pageWidth="850" pageHeight="1100" math="0" shadow="0">
      <root>
        <mxCell id="0" />
        <mxCell id="1" parent="0" />
        <mxCell id="Risd_N6Ks6hhy2hnTInW-21" style="edgeStyle=orthogonalEdgeStyle;rounded=0;orthogonalLoop=1;jettySize=auto;html=1;entryX=1;entryY=0.5;entryDx=0;entryDy=0;strokeWidth=10;endArrow=baseDash;endFill=0;startArrow=baseDash;startFill=0;strokeColor=#000000;exitX=0;exitY=0.848;exitDx=0;exitDy=0;exitPerimeter=0;" edge="1" parent="1">
          <mxGeometry relative="1" as="geometry">
            <mxPoint x="4480" y="-289.96000000000004" as="sourcePoint" />
            <mxPoint x="4370" y="-290" as="targetPoint" />
            <Array as="points" />
          </mxGeometry>
        </mxCell>
        <mxCell id="Risd_N6Ks6hhy2hnTInW-16" style="edgeStyle=orthogonalEdgeStyle;rounded=0;orthogonalLoop=1;jettySize=auto;html=1;entryX=1;entryY=0.5;entryDx=0;entryDy=0;strokeWidth=10;endArrow=baseDash;endFill=0;startArrow=baseDash;startFill=0;strokeColor=#FF8000;" edge="1" parent="1">
          <mxGeometry relative="1" as="geometry">
            <mxPoint x="4011.26" y="-393" as="sourcePoint" />
            <mxPoint x="4011.26" y="-333" as="targetPoint" />
            <Array as="points" />
          </mxGeometry>
        </mxCell>
        <mxCell id="Risd_N6Ks6hhy2hnTInW-15" style="edgeStyle=orthogonalEdgeStyle;rounded=0;orthogonalLoop=1;jettySize=auto;html=1;entryX=1;entryY=0.5;entryDx=0;entryDy=0;strokeWidth=10;endArrow=baseDash;endFill=0;startArrow=baseDash;startFill=0;strokeColor=#FF8000;" edge="1" parent="1">
          <mxGeometry relative="1" as="geometry">
            <mxPoint x="3782.26" y="-393" as="sourcePoint" />
            <mxPoint x="3782.26" y="-333" as="targetPoint" />
            <Array as="points" />
          </mxGeometry>
        </mxCell>
        <mxCell id="Risd_N6Ks6hhy2hnTInW-13" style="edgeStyle=orthogonalEdgeStyle;rounded=0;orthogonalLoop=1;jettySize=auto;html=1;entryX=1;entryY=0.5;entryDx=0;entryDy=0;strokeWidth=10;endArrow=baseDash;endFill=0;startArrow=baseDash;startFill=0;strokeColor=#FF8000;exitX=0;exitY=0.848;exitDx=0;exitDy=0;exitPerimeter=0;" edge="1" parent="1">
          <mxGeometry relative="1" as="geometry">
            <mxPoint x="4190" y="-449.96000000000004" as="sourcePoint" />
            <mxPoint x="4080" y="-450" as="targetPoint" />
            <Array as="points" />
          </mxGeometry>
        </mxCell>
        <mxCell id="Risd_N6Ks6hhy2hnTInW-14" style="edgeStyle=orthogonalEdgeStyle;rounded=0;orthogonalLoop=1;jettySize=auto;html=1;entryX=1;entryY=0.5;entryDx=0;entryDy=0;strokeWidth=10;endArrow=baseDash;endFill=0;startArrow=baseDash;startFill=0;strokeColor=#FF8000;exitX=0;exitY=0.848;exitDx=0;exitDy=0;exitPerimeter=0;" edge="1" parent="1">
          <mxGeometry relative="1" as="geometry">
            <mxPoint x="4190" y="-413.4800000000001" as="sourcePoint" />
            <mxPoint x="4080" y="-413.52000000000004" as="targetPoint" />
            <Array as="points" />
          </mxGeometry>
        </mxCell>
        <mxCell id="Risd_N6Ks6hhy2hnTInW-10" style="edgeStyle=orthogonalEdgeStyle;rounded=0;orthogonalLoop=1;jettySize=auto;html=1;strokeWidth=10;endArrow=baseDash;endFill=0;fillColor=#f8cecc;strokeColor=#FF0000;entryX=1;entryY=0.5;entryDx=0;entryDy=0;" edge="1" parent="1">
          <mxGeometry relative="1" as="geometry">
            <mxPoint x="4821" y="-792.5" as="sourcePoint" />
            <mxPoint x="4800" y="-487.91999999999973" as="targetPoint" />
            <Array as="points">
              <mxPoint x="4821" y="-488.15" />
            </Array>
          </mxGeometry>
        </mxCell>
        <mxCell id="Risd_N6Ks6hhy2hnTInW-8" style="edgeStyle=orthogonalEdgeStyle;rounded=0;orthogonalLoop=1;jettySize=auto;html=1;entryX=1;entryY=0.5;entryDx=0;entryDy=0;strokeWidth=10;endArrow=baseDash;endFill=0;startArrow=baseDash;startFill=0;strokeColor=#FF8000;exitX=0;exitY=0.848;exitDx=0;exitDy=0;exitPerimeter=0;" edge="1" parent="1">
          <mxGeometry relative="1" as="geometry">
            <mxPoint x="4480" y="-489.96000000000004" as="sourcePoint" />
            <mxPoint x="4370" y="-490" as="targetPoint" />
            <Array as="points" />
          </mxGeometry>
        </mxCell>
        <mxCell id="Risd_N6Ks6hhy2hnTInW-7" style="edgeStyle=orthogonalEdgeStyle;rounded=0;orthogonalLoop=1;jettySize=auto;html=1;entryX=1;entryY=0.5;entryDx=0;entryDy=0;strokeWidth=10;endArrow=baseDash;endFill=0;startArrow=baseDash;startFill=0;strokeColor=#000000;" edge="1" parent="1">
          <mxGeometry relative="1" as="geometry">
            <mxPoint x="4640" y="-460" as="sourcePoint" />
            <mxPoint x="4640" y="-413.52" as="targetPoint" />
            <Array as="points" />
          </mxGeometry>
        </mxCell>
        <mxCell id="Risd_N6Ks6hhy2hnTInW-1" style="edgeStyle=orthogonalEdgeStyle;rounded=0;orthogonalLoop=1;jettySize=auto;html=1;entryX=1;entryY=0.5;entryDx=0;entryDy=0;strokeWidth=10;endArrow=baseDash;endFill=0;startArrow=baseDash;startFill=0;strokeColor=#3333FF;exitX=0;exitY=0.848;exitDx=0;exitDy=0;exitPerimeter=0;" edge="1" parent="1">
          <mxGeometry relative="1" as="geometry">
            <mxPoint x="4480" y="-667.97" as="sourcePoint" />
            <mxPoint x="4370" y="-668.01" as="targetPoint" />
            <Array as="points" />
          </mxGeometry>
        </mxCell>
        <mxCell id="2i9zkkD1zkJnTm_1SoRj-6" value="" style="edgeStyle=orthogonalEdgeStyle;rounded=0;orthogonalLoop=1;jettySize=auto;html=1;strokeColor=#FF0000;endArrow=baseDash;endFill=0;strokeWidth=10;startArrow=baseDash;startFill=0;exitX=0.5;exitY=0.972;exitDx=0;exitDy=0;entryX=0.5;entryY=0;entryDx=0;entryDy=0;exitPerimeter=0;" parent="1" source="2i9zkkD1zkJnTm_1SoRj-4" edge="1">
          <mxGeometry relative="1" as="geometry">
            <Array as="points">
              <mxPoint x="4685" y="-880" />
            </Array>
            <mxPoint x="4684.929999999999" y="-910" as="sourcePoint" />
            <mxPoint x="4684.929999999999" y="-870" as="targetPoint" />
          </mxGeometry>
        </mxCell>
        <mxCell id="nk0sJlQH5ydXbXhzsZXC-66" style="edgeStyle=orthogonalEdgeStyle;rounded=0;orthogonalLoop=1;jettySize=auto;html=1;strokeWidth=10;endArrow=baseDash;endFill=0;fillColor=#f8cecc;strokeColor=#FF0000;entryX=0;entryY=0.5;entryDx=0;entryDy=0;exitX=0.087;exitY=0.993;exitDx=0;exitDy=0;exitPerimeter=0;" parent="1" source="nk0sJlQH5ydXbXhzsZXC-61" target="nk0sJlQH5ydXbXhzsZXC-67" edge="1">
          <mxGeometry relative="1" as="geometry">
            <mxPoint x="3677" y="-650" as="sourcePoint" />
            <mxPoint x="3716" y="-87" as="targetPoint" />
            <Array as="points">
              <mxPoint x="3677" y="-717" />
              <mxPoint x="3677" y="-575" />
            </Array>
          </mxGeometry>
        </mxCell>
        <mxCell id="nk0sJlQH5ydXbXhzsZXC-77" style="edgeStyle=orthogonalEdgeStyle;rounded=0;orthogonalLoop=1;jettySize=auto;html=1;entryX=0;entryY=0.5;entryDx=0;entryDy=0;strokeWidth=10;endArrow=baseDash;endFill=0;fillColor=#fff2cc;strokeColor=#FF0000;startArrow=baseDash;startFill=0;exitX=0.5;exitY=0;exitDx=0;exitDy=0;" parent="1" source="nk0sJlQH5ydXbXhzsZXC-61" target="nk0sJlQH5ydXbXhzsZXC-47" edge="1">
          <mxGeometry relative="1" as="geometry">
            <mxPoint x="4420" y="-880" as="sourcePoint" />
            <Array as="points">
              <mxPoint x="3860" y="-831" />
            </Array>
            <mxPoint x="4420" y="-832" as="targetPoint" />
          </mxGeometry>
        </mxCell>
        <mxCell id="nk0sJlQH5ydXbXhzsZXC-76" style="edgeStyle=orthogonalEdgeStyle;rounded=0;orthogonalLoop=1;jettySize=auto;html=1;entryX=0;entryY=0.5;entryDx=0;entryDy=0;strokeWidth=6;strokeColor=#FF00FF;exitX=0.5;exitY=1;exitDx=0;exitDy=0;" parent="1" source="nk0sJlQH5ydXbXhzsZXC-74" target="nk0sJlQH5ydXbXhzsZXC-75" edge="1">
          <mxGeometry relative="1" as="geometry">
            <mxPoint x="4650" y="-570.52" as="targetPoint" />
            <mxPoint x="4650" y="-617.52" as="sourcePoint" />
            <Array as="points">
              <mxPoint x="4640" y="-613.52" />
              <mxPoint x="4640" y="-613.52" />
            </Array>
          </mxGeometry>
        </mxCell>
        <mxCell id="nk0sJlQH5ydXbXhzsZXC-72" style="edgeStyle=orthogonalEdgeStyle;rounded=0;orthogonalLoop=1;jettySize=auto;html=1;exitX=1;exitY=0.5;exitDx=0;exitDy=0;strokeWidth=10;endArrow=baseDash;endFill=0;strokeColor=#FF0000;startArrow=baseDash;startFill=0;entryX=0;entryY=0.119;entryDx=0;entryDy=0;entryPerimeter=0;" parent="1" edge="1">
          <mxGeometry relative="1" as="geometry">
            <mxPoint x="4079" y="-740" as="sourcePoint" />
            <mxPoint x="4190" y="-739.8800000000001" as="targetPoint" />
            <Array as="points">
              <mxPoint x="4160" y="-740.25" />
              <mxPoint x="4190" y="-740.25" />
            </Array>
          </mxGeometry>
        </mxCell>
        <mxCell id="nk0sJlQH5ydXbXhzsZXC-1" style="edgeStyle=orthogonalEdgeStyle;rounded=0;orthogonalLoop=1;jettySize=auto;html=1;entryX=1;entryY=0.5;entryDx=0;entryDy=0;strokeWidth=10;endArrow=baseDash;endFill=0;startArrow=baseDash;startFill=0;strokeColor=#00CC00;exitX=0;exitY=0.848;exitDx=0;exitDy=0;exitPerimeter=0;" parent="1" edge="1">
          <mxGeometry relative="1" as="geometry">
            <mxPoint x="4190" y="-575.2" as="sourcePoint" />
            <mxPoint x="4080" y="-575.24" as="targetPoint" />
            <Array as="points" />
          </mxGeometry>
        </mxCell>
        <mxCell id="nk0sJlQH5ydXbXhzsZXC-7" style="edgeStyle=orthogonalEdgeStyle;rounded=0;orthogonalLoop=1;jettySize=auto;html=1;strokeWidth=10;endArrow=baseDash;endFill=0;startArrow=baseDash;startFill=0;strokeColor=#00CC00;exitX=-0.013;exitY=0.472;exitDx=0;exitDy=0;exitPerimeter=0;entryX=1;entryY=0.5;entryDx=0;entryDy=0;" parent="1" edge="1">
          <mxGeometry relative="1" as="geometry">
            <mxPoint x="4187.66" y="-661.6300000000001" as="sourcePoint" />
            <mxPoint x="4080" y="-661.44" as="targetPoint" />
            <Array as="points" />
          </mxGeometry>
        </mxCell>
        <mxCell id="nk0sJlQH5ydXbXhzsZXC-22" style="edgeStyle=orthogonalEdgeStyle;rounded=0;orthogonalLoop=1;jettySize=auto;html=1;strokeWidth=10;endArrow=baseDash;endFill=0;fillColor=#f8cecc;strokeColor=#FF0000;entryX=0;entryY=0.5;entryDx=0;entryDy=0;" parent="1" target="nk0sJlQH5ydXbXhzsZXC-58" edge="1">
          <mxGeometry relative="1" as="geometry">
            <mxPoint x="3677" y="-720" as="sourcePoint" />
            <mxPoint x="3690" y="-180" as="targetPoint" />
            <Array as="points">
              <mxPoint x="3677" y="-661" />
              <mxPoint x="3718" y="-661" />
            </Array>
          </mxGeometry>
        </mxCell>
        <mxCell id="nk0sJlQH5ydXbXhzsZXC-23" value="" style="endArrow=none;html=1;rounded=1;fontSize=29;strokeColor=#009900;strokeWidth=9;endFill=0;" parent="1" edge="1">
          <mxGeometry width="50" height="50" relative="1" as="geometry">
            <mxPoint x="4120.52" y="-155" as="sourcePoint" />
            <mxPoint x="4164.02" y="-155" as="targetPoint" />
          </mxGeometry>
        </mxCell>
        <mxCell id="nk0sJlQH5ydXbXhzsZXC-24" value="SPI" style="text;html=1;align=center;verticalAlign=middle;resizable=0;points=[];autosize=1;strokeColor=none;fillColor=none;fontSize=28;" parent="1" vertex="1">
          <mxGeometry x="4027.27" y="-151" width="70" height="50" as="geometry" />
        </mxCell>
        <mxCell id="nk0sJlQH5ydXbXhzsZXC-25" value="" style="endArrow=none;html=1;rounded=1;fontSize=29;strokeColor=#007FFF;strokeWidth=9;exitX=-0.022;exitY=-0.04;exitDx=0;exitDy=0;exitPerimeter=0;entryX=0.912;entryY=-0.06;entryDx=0;entryDy=0;entryPerimeter=0;endFill=0;" parent="1" source="nk0sJlQH5ydXbXhzsZXC-24" target="nk0sJlQH5ydXbXhzsZXC-24" edge="1">
          <mxGeometry width="50" height="50" relative="1" as="geometry">
            <mxPoint x="4040.27" y="-115" as="sourcePoint" />
            <mxPoint x="4090.27" y="-165" as="targetPoint" />
          </mxGeometry>
        </mxCell>
        <mxCell id="nk0sJlQH5ydXbXhzsZXC-26" value="I2C" style="text;html=1;align=center;verticalAlign=middle;resizable=0;points=[];autosize=1;strokeColor=none;fillColor=none;fontSize=28;" parent="1" vertex="1">
          <mxGeometry x="4104.27" y="-151" width="70" height="50" as="geometry" />
        </mxCell>
        <mxCell id="nk0sJlQH5ydXbXhzsZXC-27" value="" style="endArrow=none;html=1;rounded=1;fontSize=29;strokeColor=#FF8000;strokeWidth=9;endFill=0;" parent="1" edge="1">
          <mxGeometry width="50" height="50" relative="1" as="geometry">
            <mxPoint x="4191.27" y="-158" as="sourcePoint" />
            <mxPoint x="4246.27" y="-159" as="targetPoint" />
          </mxGeometry>
        </mxCell>
        <mxCell id="nk0sJlQH5ydXbXhzsZXC-28" value="UART" style="text;html=1;align=center;verticalAlign=middle;resizable=0;points=[];autosize=1;strokeColor=none;fillColor=none;fontSize=28;" parent="1" vertex="1">
          <mxGeometry x="4173.27" y="-153" width="100" height="50" as="geometry" />
        </mxCell>
        <mxCell id="nk0sJlQH5ydXbXhzsZXC-29" value="" style="endArrow=none;html=1;rounded=1;fontSize=29;strokeColor=#000000;strokeWidth=9;endFill=0;" parent="1" edge="1">
          <mxGeometry width="50" height="50" relative="1" as="geometry">
            <mxPoint x="4451.27" y="-156.0000000000009" as="sourcePoint" />
            <mxPoint x="4522.27" y="-158" as="targetPoint" />
          </mxGeometry>
        </mxCell>
        <mxCell id="nk0sJlQH5ydXbXhzsZXC-30" value="GPIO" style="text;html=1;align=center;verticalAlign=middle;resizable=0;points=[];autosize=1;strokeColor=none;fillColor=none;fontSize=28;" parent="1" vertex="1">
          <mxGeometry x="4444.27" y="-153" width="90" height="50" as="geometry" />
        </mxCell>
        <mxCell id="nk0sJlQH5ydXbXhzsZXC-31" value="" style="endArrow=none;html=1;rounded=1;fontSize=29;strokeColor=#CC00CC;strokeWidth=9;endFill=0;" parent="1" edge="1">
          <mxGeometry width="50" height="50" relative="1" as="geometry">
            <mxPoint x="4280.27" y="-159" as="sourcePoint" />
            <mxPoint x="4337.270000000002" y="-160" as="targetPoint" />
          </mxGeometry>
        </mxCell>
        <mxCell id="nk0sJlQH5ydXbXhzsZXC-32" value="RF" style="text;html=1;align=center;verticalAlign=middle;resizable=0;points=[];autosize=1;strokeColor=none;fillColor=none;fontSize=28;" parent="1" vertex="1">
          <mxGeometry x="4278.09" y="-155" width="60" height="50" as="geometry" />
        </mxCell>
        <mxCell id="nk0sJlQH5ydXbXhzsZXC-33" value="" style="endArrow=none;html=1;rounded=1;fontSize=29;strokeColor=#FF0000;strokeWidth=9;endFill=0;" parent="1" edge="1">
          <mxGeometry width="50" height="50" relative="1" as="geometry">
            <mxPoint x="4362.270000000002" y="-157" as="sourcePoint" />
            <mxPoint x="4428.269999999999" y="-158" as="targetPoint" />
          </mxGeometry>
        </mxCell>
        <mxCell id="nk0sJlQH5ydXbXhzsZXC-34" value="Power" style="text;html=1;align=center;verticalAlign=middle;resizable=0;points=[];autosize=1;strokeColor=none;fillColor=none;fontSize=28;" parent="1" vertex="1">
          <mxGeometry x="4346.27" y="-153" width="100" height="50" as="geometry" />
        </mxCell>
        <mxCell id="nk0sJlQH5ydXbXhzsZXC-36" style="edgeStyle=orthogonalEdgeStyle;rounded=0;orthogonalLoop=1;jettySize=auto;html=1;strokeWidth=10;endArrow=baseDash;endFill=0;fillColor=#f8cecc;strokeColor=#FF0000;entryX=1;entryY=0.5;entryDx=0;entryDy=0;exitX=0.942;exitY=1.002;exitDx=0;exitDy=0;exitPerimeter=0;" parent="1" edge="1">
          <mxGeometry relative="1" as="geometry">
            <mxPoint x="4821.139999999999" y="-792.505" as="sourcePoint" />
            <mxPoint x="4800" y="-667.9299999999997" as="targetPoint" />
            <Array as="points">
              <mxPoint x="4821" y="-668.16" />
            </Array>
          </mxGeometry>
        </mxCell>
        <mxCell id="nk0sJlQH5ydXbXhzsZXC-47" value="5V Step Down Regulator" style="rounded=0;whiteSpace=wrap;html=1;fillColor=#f8cecc;strokeColor=#b85450;fontSize=28;" parent="1" vertex="1">
          <mxGeometry x="4510" y="-870" width="350" height="77.5" as="geometry" />
        </mxCell>
        <mxCell id="nk0sJlQH5ydXbXhzsZXC-58" value="&lt;div&gt;9 axis IMU&lt;/div&gt;" style="rounded=0;whiteSpace=wrap;html=1;fillColor=#f5f5f5;strokeColor=#666666;fontSize=28;fontColor=#333333;" parent="1" vertex="1">
          <mxGeometry x="3718" y="-690" width="362" height="57.5" as="geometry" />
        </mxCell>
        <mxCell id="nk0sJlQH5ydXbXhzsZXC-61" value="3.3V regulator" style="rounded=0;whiteSpace=wrap;html=1;fillColor=#f8cecc;strokeColor=#b85450;fontSize=28;" parent="1" vertex="1">
          <mxGeometry x="3640" y="-769.25" width="439" height="53" as="geometry" />
        </mxCell>
        <mxCell id="nk0sJlQH5ydXbXhzsZXC-67" value="Pressure/Temperature/Humidity Sensor" style="rounded=0;whiteSpace=wrap;html=1;fillColor=#f5f5f5;strokeColor=#666666;fontSize=28;fontColor=#333333;" parent="1" vertex="1">
          <mxGeometry x="3716" y="-610" width="364" height="70" as="geometry" />
        </mxCell>
        <mxCell id="nk0sJlQH5ydXbXhzsZXC-69" value="ESP32 S3" style="rounded=0;whiteSpace=wrap;html=1;fillColor=#f5f5f5;fontSize=28;fontColor=#333333;strokeColor=#666666;" parent="1" vertex="1">
          <mxGeometry x="4190" y="-770" width="180" height="520" as="geometry" />
        </mxCell>
        <mxCell id="nk0sJlQH5ydXbXhzsZXC-74" value="2W LoRa Radio" style="rounded=0;whiteSpace=wrap;html=1;fontSize=28;fillColor=#F5F5F5;strokeColor=#23445d;" parent="1" vertex="1">
          <mxGeometry x="4480" y="-694.52" width="320" height="53.5" as="geometry" />
        </mxCell>
        <mxCell id="nk0sJlQH5ydXbXhzsZXC-75" value="868/915MHz antenna" style="rounded=0;whiteSpace=wrap;html=1;fontSize=28;fillColor=#bac8d3;strokeColor=#23445d;direction=south;" parent="1" vertex="1">
          <mxGeometry x="4480" y="-593.52" width="320" height="53.52" as="geometry" />
        </mxCell>
        <mxCell id="nk0sJlQH5ydXbXhzsZXC-82" value="&lt;div&gt;&lt;font style=&quot;font-size: 48px;&quot;&gt;KRUPS RockSatX GHOST: &lt;br&gt;&lt;/font&gt;&lt;/div&gt;&lt;div&gt;&lt;font style=&quot;font-size: 48px;&quot;&gt;RocketStation&lt;br&gt;&lt;/font&gt;&lt;/div&gt;" style="text;html=1;align=center;verticalAlign=middle;whiteSpace=wrap;rounded=0;" parent="1" vertex="1">
          <mxGeometry x="3840" y="-1100" width="410" height="240" as="geometry" />
        </mxCell>
        <mxCell id="2i9zkkD1zkJnTm_1SoRj-4" value="28V GSE Power" style="rounded=0;whiteSpace=wrap;html=1;fillColor=#f8cecc;strokeColor=#b85450;fontSize=28;" parent="1" vertex="1">
          <mxGeometry x="4510" y="-1000" width="350" height="72" as="geometry" />
        </mxCell>
        <mxCell id="Risd_N6Ks6hhy2hnTInW-4" value="Raspberry Pi 5" style="rounded=0;whiteSpace=wrap;html=1;fontSize=28;fillColor=#bac8d3;strokeColor=#23445d;" vertex="1" parent="1">
          <mxGeometry x="4480" y="-514.52" width="320" height="53.5" as="geometry" />
        </mxCell>
        <mxCell id="Risd_N6Ks6hhy2hnTInW-5" value="Rocket Telemetry Pin 1" style="rounded=0;whiteSpace=wrap;html=1;fontSize=28;fillColor=#bac8d3;strokeColor=#23445d;direction=south;" vertex="1" parent="1">
          <mxGeometry x="3715" y="-330" width="135" height="103.52" as="geometry" />
        </mxCell>
        <mxCell id="Risd_N6Ks6hhy2hnTInW-11" style="edgeStyle=orthogonalEdgeStyle;rounded=0;orthogonalLoop=1;jettySize=auto;html=1;strokeWidth=10;endArrow=baseDash;endFill=0;fillColor=#f8cecc;strokeColor=#FF0000;entryX=0;entryY=0.5;entryDx=0;entryDy=0;exitX=0.087;exitY=0.993;exitDx=0;exitDy=0;exitPerimeter=0;" edge="1" parent="1" target="Risd_N6Ks6hhy2hnTInW-12">
          <mxGeometry relative="1" as="geometry">
            <mxPoint x="3677" y="-570" as="sourcePoint" />
            <mxPoint x="3715" y="60" as="targetPoint" />
            <Array as="points">
              <mxPoint x="3676" y="-570" />
              <mxPoint x="3676" y="-428" />
            </Array>
          </mxGeometry>
        </mxCell>
        <mxCell id="Risd_N6Ks6hhy2hnTInW-12" value="Dual Channel RS232 Level Shifter" style="rounded=0;whiteSpace=wrap;html=1;fillColor=#f5f5f5;strokeColor=#666666;fontSize=28;fontColor=#333333;" vertex="1" parent="1">
          <mxGeometry x="3715" y="-463" width="364" height="70" as="geometry" />
        </mxCell>
        <mxCell id="Risd_N6Ks6hhy2hnTInW-18" value="Camera" style="rounded=0;whiteSpace=wrap;html=1;fontSize=28;fillColor=#bac8d3;strokeColor=#23445d;direction=south;" vertex="1" parent="1">
          <mxGeometry x="4480" y="-410" width="320" height="53.52" as="geometry" />
        </mxCell>
        <mxCell id="Risd_N6Ks6hhy2hnTInW-19" value="Rocket Telemetry Pin 2" style="rounded=0;whiteSpace=wrap;html=1;fontSize=28;fillColor=#bac8d3;strokeColor=#23445d;direction=south;" vertex="1" parent="1">
          <mxGeometry x="3944" y="-330" width="135" height="103.52" as="geometry" />
        </mxCell>
        <mxCell id="Risd_N6Ks6hhy2hnTInW-20" value="TE Line For Radio Activation" style="rounded=0;whiteSpace=wrap;html=1;fontSize=28;fillColor=#bac8d3;strokeColor=#23445d;direction=south;" vertex="1" parent="1">
          <mxGeometry x="4480" y="-320" width="320" height="68.52" as="geometry" />
        </mxCell>
      </root>
    </mxGraphModel>
  </diagram>
</mxfile>
